<?xml version="1.0" encoding="UTF-8"?>
<svg id="Layer_2" data-name="Layer 2" xmlns="http://www.w3.org/2000/svg" viewBox="0 0 35.93 17.02">
  <defs>
    <style>
      .cls-1 {
        fill: #f37321;
      }
    </style>
  </defs>
  <g id="Layer_1-2" data-name="Layer 1">
    <g>
      <path class="cls-1" d="m11.16,0h3.14v16.75h-3.14v-1.42c-1.26,1.12-2.73,1.68-4.39,1.68-1.87,0-3.47-.7-4.79-2.09-1.32-1.39-1.98-3.08-1.98-5.05s.66-3.66,1.98-5.06c1.32-1.4,2.92-2.1,4.79-2.1,1.66,0,3.13.56,4.39,1.68V0Zm-6.83,12.7c.78.78,1.72,1.18,2.82,1.18s2.05-.39,2.83-1.18,1.18-1.73,1.18-2.83-.39-2.05-1.18-2.83c-.78-.78-1.73-1.18-2.83-1.18s-2.04.39-2.82,1.18c-.78.78-1.16,1.73-1.16,2.83s.39,2.05,1.16,2.83Z"/>
      <path class="cls-1" d="m18.3,4.81c1.4-1.4,3.09-2.1,5.06-2.1s3.66.7,5.06,2.1c1.4,1.4,2.1,3.09,2.1,5.06s-.7,3.66-2.1,5.05c-1.4,1.39-3.09,2.09-5.06,2.09s-3.66-.7-5.06-2.09c-1.4-1.39-2.1-3.08-2.1-5.05s.7-3.66,2.1-5.06Zm2.23,7.88c.78.78,1.72,1.18,2.82,1.18s2.05-.39,2.83-1.18,1.18-1.73,1.18-2.83-.39-2.05-1.18-2.83c-.78-.78-1.73-1.18-2.83-1.18s-2.04.39-2.82,1.18c-.78.78-1.16,1.73-1.16,2.83s.39,2.05,1.16,2.83Z"/>
      <path class="cls-1" d="m32.3,13.37c.42-.42.92-.62,1.5-.62s1.08.21,1.5.62c.42.42.62.92.62,1.5s-.21,1.08-.62,1.5c-.42.42-.92.62-1.5.62s-1.08-.21-1.5-.62c-.42-.42-.62-.92-.62-1.5s.21-1.08.62-1.5Z"/>
    </g>
  </g>
</svg>